<svg xmlns="http://www.w3.org/2000/svg" viewBox="0 0 1600 800" role="img" aria-label="World map">
  <defs>
    <linearGradient id="ocean" x1="0" y1="0" x2="0" y2="1">
      <stop offset="0%" stop-color="#0b4f6c" />
      <stop offset="100%" stop-color="#08324a" />
    </linearGradient>
  </defs>
  <rect width="1600" height="800" fill="url(#ocean)" />

  <g fill="#d7e6ef" opacity="0.92">
    <path d="M104 268l44-42 96-40 64 8 44-12 68 26 26 42 86 18 56 44-16 58-52 46-66 8-38-34-62-8-46-32-74-10-30-38z" />
    <path d="M516 170l56-24 70 14 44-18 44 16 10 36 54 26 20 44-18 34-46 10-32 34-56-6-48-34-40 4-46-38-14-56z" />
    <path d="M730 354l48-22 66 10 36 44 4 70-24 44-44 14-50-22-32-58z" />
    <path d="M878 148l58-18 84 10 60-16 102 18 78 44 20 58-18 42-82 36-76 10-54 28-80-10-54-26-34-62 10-54z" />
    <path d="M1076 370l56-12 48 18 18 38-24 32-62 8-42-26z" />
    <path d="M1234 472l58-26 74 18 28 56-20 66-54 38-78-16-36-52z" />
    <path d="M1390 242l44-24 50 8 12 44-34 30-46-8z" />
  </g>

  <g fill="#ffffff" opacity="0.14">
    <circle cx="240" cy="180" r="4" />
    <circle cx="334" cy="294" r="3" />
    <circle cx="498" cy="216" r="4" />
    <circle cx="662" cy="318" r="3" />
    <circle cx="864" cy="202" r="4" />
    <circle cx="1018" cy="262" r="3" />
    <circle cx="1188" cy="198" r="4" />
    <circle cx="1346" cy="284" r="3" />
  </g>
</svg>